HIERARCHY
ROOT Hips
{
  OFFSET 0.0 0.0 0.0
  CHANNELS 6 Xposition Yposition Zposition Zrotation Yrotation Xrotation
  JOINT LHipJoint
  {
    OFFSET 0.0 0.0 0.0
    CHANNELS 3 Zrotation Yrotation Xrotation
    JOINT LeftUpLeg
    {
      OFFSET 1.363059998 -1.794630051 0.839290023
      CHANNELS 3 Zrotation Yrotation Xrotation
      JOINT LeftLeg
      {
        OFFSET 2.448110104 -6.726130009 0.0
        CHANNELS 3 Zrotation Yrotation Xrotation
        JOINT LeftFoot
        {
          OFFSET 2.562200069 -7.039589882 0.0
          CHANNELS 3 Zrotation Yrotation Xrotation
          JOINT LeftToeBase
          {
            OFFSET 0.157639995 -0.433109999 2.322550058
            CHANNELS 3 Zrotation Yrotation Xrotation
            End Site
            {
              OFFSET 0.0 -0.0 1.189659953
            }
          }
        }
      }
    }
  }
  JOINT RHipJoint
  {
    OFFSET 0.0 0.0 0.0
    CHANNELS 3 Zrotation Yrotation Xrotation
    JOINT RightUpLeg
    {
      OFFSET -1.305520058 -1.794630051 0.839290023
      CHANNELS 3 Zrotation Yrotation Xrotation
      JOINT RightLeg
      {
        OFFSET -2.54253006 -6.985549927 0.0
        CHANNELS 3 Zrotation Yrotation Xrotation
        JOINT RightFoot
        {
          OFFSET -2.568259954 -7.056230068 0.0
          CHANNELS 3 Zrotation Yrotation Xrotation
          JOINT RightToeBase
          {
            OFFSET -0.164729998 -0.452589989 2.363149881
            CHANNELS 3 Zrotation Yrotation Xrotation
            End Site
            {
              OFFSET -0.0 -0.0 1.21081996
            }
          }
        }
      }
    }
  }
  JOINT LowerBack
  {
    OFFSET 0.0 0.0 0.0
    CHANNELS 3 Zrotation Yrotation Xrotation
    JOINT Spine
    {
      OFFSET 0.028270001 2.035589933 -0.193379998
      CHANNELS 3 Zrotation Yrotation Xrotation
      JOINT Spine1
      {
        OFFSET 0.05672 2.04885006 -0.042750001
        CHANNELS 3 Zrotation Yrotation Xrotation
        JOINT Neck
        {
          OFFSET 0.0 0.0 0.0
          CHANNELS 3 Zrotation Yrotation Xrotation
          JOINT Neck1
          {
            OFFSET -0.054170001 1.74624002 0.172020003
            CHANNELS 3 Zrotation Yrotation Xrotation
            JOINT Head
            {
              OFFSET 0.10407 1.761360049 -0.123970002
              CHANNELS 3 Zrotation Yrotation Xrotation
              End Site
              {
                OFFSET 0.0372 1.770439982 -0.062410001
              }
            }
          }
        }
        JOINT LeftShoulder
        {
          OFFSET 0.0 0.0 0.0
          CHANNELS 3 Zrotation Yrotation Xrotation
          JOINT LeftArm
          {
            OFFSET 3.362410069 1.200889945 -0.311210006
            CHANNELS 3 Zrotation Yrotation Xrotation
            JOINT LeftForeArm
            {
              OFFSET 4.982999802 -0.0 -0.0
              CHANNELS 3 Zrotation Yrotation Xrotation
              JOINT LeftHand
              {
                OFFSET 3.483560085 -0.0 -0.0
                CHANNELS 3 Zrotation Yrotation Xrotation
                JOINT LeftFingerBase
                {
                  OFFSET 0.0 0.0 0.0
                  CHANNELS 3 Zrotation Yrotation Xrotation
                  JOINT LeftHandIndex1
                  {
                    OFFSET 0.715260029 -0.0 -0.0
                    CHANNELS 3 Zrotation Yrotation Xrotation
                    End Site
                    {
                      OFFSET 0.576659977 -0.0 -0.0
                    }
                  }
                }
                JOINT LThumb
                {
                  OFFSET 0.0 0.0 0.0
                  CHANNELS 3 Zrotation Yrotation Xrotation
                  End Site
                  {
                    OFFSET 0.585470021 -0.0 0.585470021
                  }
                }
              }
            }
          }
        }
        JOINT RightShoulder
        {
          OFFSET 0.0 0.0 0.0
          CHANNELS 3 Zrotation Yrotation Xrotation
          JOINT RightArm
          {
            OFFSET -3.136600018 1.374050021 -0.404650003
            CHANNELS 3 Zrotation Yrotation Xrotation
            JOINT RightForeArm
            {
              OFFSET -5.241899967 -0.0 -0.0
              CHANNELS 3 Zrotation Yrotation Xrotation
              JOINT RightHand
              {
                OFFSET -3.444169998 -0.0 -0.0
                CHANNELS 3 Zrotation Yrotation Xrotation
                JOINT RightFingerBase
                {
                  OFFSET 0.0 0.0 0.0
                  CHANNELS 3 Zrotation Yrotation Xrotation
                  JOINT RightHandIndex1
                  {
                    OFFSET -0.622529984 -0.0 -0.0
                    CHANNELS 3 Zrotation Yrotation Xrotation
                    End Site
                    {
                      OFFSET -0.501900017 -0.0 -0.0
                    }
                  }
                }
                JOINT RThumb
                {
                  OFFSET 0.0 0.0 0.0
                  CHANNELS 3 Zrotation Yrotation Xrotation
                  End Site
                  {
                    OFFSET -0.509559989 -0.0 0.509559989
                  }
                }
              }
            }
          }
        }
      }
    }
  }
}
MOTION
Frames: 5
Frame Time: 0.0083333
-4.697608948 31.112800598 16.687496185 -11.089403152 -15.762203217 8.696900368 0.0 -0.0 0.0 -10.79969883 -2.729898453 -36.722690582 6.55340004 14.943998337 47.164405823 0.455200046 -11.972601891 -13.695302963 0.217800006 -3.004600286 -8.291599274 0.0 -0.0 0.0 37.286499023 -8.157499313 -12.127699852 -2.57889986 -9.97990036 28.911706924 -1.415699244 -12.065303802 -29.708906174 -0.034799993 -1.20419991 3.310799599 6.316799164 2.24230051 20.968399048 1.763400316 4.353101254 4.461501598 -2.796299696 1.984299541 -6.491399288 0.048600003 -0.787500143 -6.042901993 -3.975900173 -0.137099743 27.821899414 -1.416900039 -0.504400015 9.77009964 0.0 -0.0 0.0 6.877501965 -52.1927948 -43.928791046 80.803009033 -59.678005219 -52.043804169 0.0 -0.0 9.975498199 -16.549303055 -1.773800254 0.527000189 -7.125 0.0 0.0 -31.631402969 27.1434021 16.152999878 0.0 -0.0 0.0 44.579704285 13.191001892 -34.974300385 -130.149597168 52.93497467 -93.945304871 0.0 -0.0 20.080299377 -9.735500336 -33.035301208 5.343499184 7.125 -0.0 0.0 26.768602371 -61.378818512 -11.119505882 
-4.72690773 31.111700058 16.680095673 -11.23770237 -16.264499664 8.744401932 0.0 -0.0 0.0 -10.292798996 -2.923500061 -36.638492584 6.57049799 14.959299088 47.230491638 0.351700306 -12.908902168 -13.052101135 0.095499992 -1.992699981 -5.485499382 0.0 -0.0 0.0 37.26379776 -7.96149826 -12.122298241 -2.632499695 -10.074999809 29.220001221 -1.407599926 -11.859601021 -29.487298965 -0.025 -1.020099998 2.80410099 6.318600178 1.968399048 20.677797318 1.691699982 3.961200237 4.567000866 -2.75970006 1.805900097 -6.251400471 -0.379100055 -0.399700016 -5.861199379 -3.825701237 0.421400279 27.74420166 -1.234000087 -0.27730006 9.72259903 0.0 -0.0 0.0 6.783596992 -50.882297516 -43.91229248 80.873138428 -59.68290329 -52.104328156 0.0 -0.0 9.599899292 -16.977397919 -1.657400608 0.505900085 -7.125 0.0 0.0 -31.934902191 27.211200714 16.305498123 0.0 -0.0 0.0 44.725200653 14.387097359 -33.848201752 -129.959320068 53.011890411 -93.793289185 0.0 -0.0 20.094200134 -9.126898766 -33.035800934 5.005399227 7.125 -0.0 0.0 27.399305344 -61.23059845 -11.307106018 
-4.762807846 31.112800598 16.676595688 -11.089403152 -15.762203217 8.696900368 0.0 -0.0 0.0 -10.79969883 -2.729898453 -36.722690582 6.55340004 14.943998337 47.164405823 0.455200046 -11.972601891 -13.695302963 0.217800006 -3.004600286 -8.291599274 0.0 -0.0 0.0 37.286499023 -8.157499313 -12.127699852 -2.57889986 -9.97990036 28.911706924 -1.415699244 -12.065303802 -29.708906174 -0.034799993 -1.20419991 3.310799599 6.316799164 2.24230051 20.968399048 1.763400316 4.353101254 4.461501598 -2.796299696 1.984299541 -6.491399288 0.048600003 -0.787500143 -6.042901993 -3.975900173 -0.137099743 27.821899414 -1.416900039 -0.504400015 9.77009964 0.0 -0.0 0.0 6.877501965 -52.1927948 -43.928791046 80.803009033 -59.678005219 -52.043804169 0.0 -0.0 9.975498199 -16.549303055 -1.773800254 0.527000189 -7.125 0.0 0.0 -31.631402969 27.1434021 16.152999878 0.0 -0.0 0.0 44.579704285 13.191001892 -34.974300385 -130.149597168 52.93497467 -93.945304871 0.0 -0.0 20.080299377 -9.735500336 -33.035301208 5.343499184 7.125 -0.0 0.0 26.768602371 -61.378818512 -11.119505882 
-4.8066082 31.11000061 16.673696518 -11.057897568 -15.109297752 8.632097244 0.0 -0.0 0.0 -11.129401207 -2.531898975 -36.793998718 6.505298615 14.900697708 46.977306366 0.364500046 -11.662302017 -12.633299828 0.108500019 -2.12409997 -5.848899841 0.0 -0.0 0.0 37.487091064 -8.374800682 -12.11349678 -2.531100512 -9.894202232 28.634706497 -1.508800626 -12.000900269 -30.265800476 -0.081999995 -1.847400546 5.084100246 6.249899864 2.634199619 21.627601624 1.929299593 4.927000523 4.257099628 -2.770900249 2.236199617 -7.033799171 0.985800147 -1.221099615 -6.702199936 -4.407700062 -0.760800123 28.25239563 -1.807499647 -0.743899941 10.026498795 0.0 -0.0 0.0 7.02890873 -53.909202576 -43.976905823 81.090003967 -59.697910309 -52.291500092 0.0 -0.0 9.953099251 -16.430000305 -1.919499874 0.565900028 -7.125 0.0 0.0 -31.514493942 27.023696899 16.179498672 0.0 -0.0 0.0 44.443702698 11.794699669 -36.297000885 -130.241714478 52.897502899 -94.018806458 0.0 -0.0 20.109600067 -9.858301163 -33.091503143 5.419900417 7.125 -0.0 0.0 26.694795609 -61.458309174 -11.136795044 
-4.843008041 31.121099472 16.653495789 -11.027797699 -14.958000183 8.625598907 0.0 -0.0 0.0 -11.481200218 -2.134599924 -36.795001984 6.43060112 14.83300209 46.686408997 0.45480001 -10.98789978 -13.323000908 0.128600001 -2.311499834 -6.367298126 0.0 -0.0 0.0 37.532501221 -8.189299583 -11.87019825 -2.484899759 -9.810398102 28.365001678 -1.58190012 -11.981100082 -30.718894958 -0.146099985 -2.463500023 6.788299561 5.999100685 3.053400993 22.353599548 2.057500362 5.493200779 4.06180048 -2.696000338 2.484000206 -7.620700836 1.583999991 -1.48240006 -7.73239994 -4.736999512 -1.12680006 28.80399704 -2.092499495 -0.89139986 10.409300804 0.0 -0.0 0.0 7.097903728 -55.186519623 -44.134609222 81.590873718 -59.731090546 -52.724075317 0.0 -0.0 9.446498871 -16.959104538 -1.662300229 0.506800175 -7.125 0.0 0.0 -31.921895981 27.20839119 16.298900604 0.0 -0.0 0.0 44.340194702 10.793097496 -37.23928833 -130.252731323 52.893100739 -94.027534485 0.0 -0.0 20.271499634 -10.597000122 -32.090801239 5.676199913 7.125 -0.0 0.0 25.003204346 -60.750312805 -9.956804276 
